<?xml version="1.0" encoding="utf-8"?>
<!-- Generator: Adobe Illustrator 16.0.0, SVG Export Plug-In . SVG Version: 6.00 Build 0)  -->
<!DOCTYPE svg PUBLIC "-//W3C//DTD SVG 1.1//EN" "http://www.w3.org/Graphics/SVG/1.1/DTD/svg11.dtd">
<svg version="1.1" id="Layer_1" xmlns="http://www.w3.org/2000/svg" xmlns:xlink="http://www.w3.org/1999/xlink" x="0px" y="0px"
	 width="360px" height="120px" viewBox="0 0 1280 400" enable-background="new 0 0 0 0" xml:space="preserve">
<title>logo_pjt2_iwc</title>
<radialGradient id="SVGID_1_" cx="557.1135" cy="186.2644" r="189.7238" gradientTransform="matrix(1.5654 0 0 1.6445 -82.5775 -106.0012)" gradientUnits="userSpaceOnUse">
	<stop  offset="0" style="stop-color:#1FC3F3"/>
	<stop  offset="1" style="stop-color:#213B81"/>
</radialGradient>
<path fill-rule="evenodd" clip-rule="evenodd" fill="url(#SVGID_1_)" d="M330.143,219.574c0,8.784,18.684,8.784,18.684,8.784v-26.36
	h5.323c18.357,0,34.651-5.819,34.651-28.072v-2.054c0-22.825-16.294-27.617-34.651-27.617h-24.007V219.574L330.143,219.574z
	 M354.15,158.178c9.341,0,15.968,2.282,15.968,14.721c0,13.465-6.627,15.177-15.968,15.177h-5.323v-29.898H354.15L354.15,158.178z
	 M415.633,188.876c0-6.279,1.738-9.701,7.169-9.701c4.779,0,6.627,2.739,6.627,6.847c0,4.908-3.694,6.276-7.605,6.276
	c-2.281,0-4.562-0.457-6.191-0.913V188.876L415.633,188.876z M425.953,228.589c13.795,0,22.594-6.506,22.594-14.837
	c0-3.195-1.303-6.619-3.911-10.384c-0.108,5.935-6.844,11.299-18.141,11.299c-6.626,0-10.862-2.854-10.862-9.245v-1.826
	c0,0,3.367,1.826,8.907,1.826c18.141,0,23.029-9.357,23.029-19.4c0-12.211-7.169-20.313-24.007-20.313s-26.179,8.102-26.179,21.455
	v19.969C397.384,220.6,407.378,228.589,425.953,228.589L425.953,228.589z M476.573,228.018v-47.473
	c8.148-1.94,18.141-0.228,18.141,10.498c0,0,6.627-5.591,6.627-13.58c0-9.015-8.365-11.753-16.078-11.753
	c-6.844,0-12.384,2.396-17.381,2.396c-2.716,0-5.649-0.799-9.559-2.739v53.865C458.324,228.018,476.573,228.018,476.573,228.018
	L476.573,228.018z M524.262,175.067c0-8.331-18.25-8.787-18.25-8.787v42.11c0,15.861,13.036,20.199,25.202,20.199
	c5.541,0,10.646-2.398,16.186-2.398c6.844,0,11.733,2.854,11.733,2.854v-53.978c0-8.787-18.25-8.787-18.25-8.787v47.587
	c0,0-4.454,1.141-8.148,1.141c-6.3,0-8.473-2.967-8.473-8.33V175.067L524.262,175.067z M605.951,219.232
	c0,8.331,18.25,8.786,18.25,8.786v-41.88c0-4.452,4.236-6.962,8.364-6.962c4.671,0,8.256,2.625,8.256,10.043v30.013
	c0,8.56,18.249,8.786,18.249,8.786v-40.854c0-14.037-10.429-21.455-23.789-21.455c-12.058,0-18.685,4.68-18.685,4.68
	s-6.844-4.68-17.38-4.68c-5.54,0-10.428,2.283-15.534,2.283c-8.365,0-12.601-2.625-12.601-2.625v53.865
	c0,8.786,18.249,8.786,18.249,8.786v-47.701c0,0,4.563-0.914,8.365-0.914c6.192,0,8.256,3.538,8.256,8.216V219.232L605.951,219.232z
	 M722.183,152.129c0-9.015-17.49-9.015-18.575-9.015v82.85c0,5.936-3.15,16.889-12.492,16.889c0,0,4.67,7.076,15.643,7.076
	c9.776,0,15.425-9.243,15.425-20.085V152.129L722.183,152.129z M766.613,214.44c0,0-4.02,1.254-7.929,1.254
	c-3.695,0-7.389-1.142-7.389-6.505c0-7.304,12.384-5.479,15.317-10.271V214.44L766.613,214.44z M757.27,179.29
	c7.061,0,9.017,3.195,9.017,5.933c-4.997,7.646-33.241,3.766-33.241,24.651c0,14.377,11.733,18.715,23.898,18.715
	c6.41,0,12.494-2.055,18.251-2.055c3.041,0,6.3,0.342,9.342,2.055v-42.452c0-13.238-9.342-20.428-27.048-20.428
	c-7.496,0-22.922,2.283-22.922,13.807c0,3.538,0.977,7.647,4.997,13.239C739.564,181.914,748.906,179.29,757.27,179.29
	L757.27,179.29L757.27,179.29z M827.988,208.732c0,5.708-5.648,6.276-9.124,6.276c-5.866,0-17.707-0.686-18.142-11.754
	c-4.672,4.451-6.844,8.56-6.844,12.212c0,7.759,9.342,13.123,24.985,13.123c18.032,0,27.048-7.188,27.048-19.286
	c0-27.731-35.305-15.977-35.305-24.993c0-3.423,4.454-4.793,10.103-4.793c7.495,0,16.729,2.739,16.729,9.359
	c3.477-4.223,5.106-8.104,5.106-11.299c0-7.532-8.907-11.868-23.681-11.868c-16.839,0-26.181,6.275-26.181,19.856
	C792.683,210.786,827.988,198.804,827.988,208.732L827.988,208.732L827.988,208.732z M885.996,214.44c0,0-4.019,1.254-7.93,1.254
	c-3.694,0-7.387-1.142-7.387-6.505c0-7.304,12.383-5.479,15.316-10.271V214.44L885.996,214.44z M876.654,179.29
	c7.061,0,9.017,3.195,9.017,5.933c-4.997,7.646-33.241,3.766-33.241,24.651c0,14.377,11.732,18.715,23.899,18.715
	c6.408,0,12.492-2.055,18.249-2.055c3.042,0,6.3,0.342,9.342,2.055v-42.452c0-13.238-9.342-20.428-27.049-20.428
	c-7.495,0-22.921,2.283-22.921,13.807c0,3.538,0.979,7.647,4.997,13.239C858.947,181.914,868.289,179.29,876.654,179.29
	L876.654,179.29L876.654,179.29z M985.827,158.178c10.862,0,12.272-7.875,12.272-15.749c0,0-5.104,1.827-14.012,1.827h-36.5
	c-8.907,0-14.122-1.827-14.122-1.827c0,7.874,1.63,15.749,12.385,15.749h10.429v61.396c0,8.784,18.684,8.784,18.684,8.784v-70.181
	H985.827L985.827,158.178z M1004.291,219.232c0,8.786,18.251,8.786,18.251,8.786v-52.951c0-8.445-16.729-8.787-18.251-8.787V219.232
	L1004.291,219.232z M1004.618,155.552c0,2.054,2.391,4.223,5.758,4.223H1022v-10.955c0-1.712-2.392-4.337-5.649-4.337h-11.732
	V155.552L1004.618,155.552z M1052.74,228.018v-47.473c8.148-1.94,18.142-0.228,18.142,10.498c0,0,6.627-5.591,6.627-13.58
	c0-9.015-8.363-11.753-16.078-11.753c-6.843,0-12.384,2.396-17.379,2.396c-2.717,0-5.65-0.799-9.56-2.739v53.865
	C1034.492,228.018,1052.74,228.018,1052.74,228.018L1052.74,228.018z M1083.265,207.133c0,13.467,8.582,21.456,24.877,21.456
	c16.401,0,20.64-7.874,20.64-14.267c0-4.448-2.283-7.872-5.868-11.41c0,10.155-6.624,11.869-11.948,11.869
	c-7.931,0-9.451-3.766-9.451-10.844v-19.513h11.516c9.995,0,10.102-13.922,10.102-13.922h-21.617v-3.651
	c0-10.156-18.249-8.902-18.249-8.902V207.133L1083.265,207.133z M1166.148,214.44c0,0-4.019,1.254-7.929,1.254
	c-3.692,0-7.387-1.142-7.387-6.505c0-7.304,12.384-5.479,15.315-10.271V214.44L1166.148,214.44z M1156.807,179.29
	c7.062,0,9.017,3.195,9.017,5.933c-4.998,7.646-33.24,3.766-33.24,24.651c0,14.377,11.731,18.715,23.898,18.715
	c6.408,0,12.492-2.055,18.249-2.055c3.042,0,6.299,0.342,9.342,2.055v-42.452c0-13.238-9.342-20.428-27.049-20.428
	c-7.495,0-22.921,2.283-22.921,13.807c0,3.538,0.978,7.647,4.997,13.239C1139.1,181.914,1148.442,179.29,1156.807,179.29
	L1156.807,179.29L1156.807,179.29z M1226.982,219.574c0,8.784,18.684,8.784,18.684,8.784v-76.457c0-8.789-18.684-8.789-18.684-8.789
	V219.574L1226.982,219.574z M1259.788,219.574c0,8.784,18.685,8.784,18.685,8.784v-76.457c0-8.789-18.685-8.789-18.685-8.789
	V219.574z"/>
<g>
	<path fill-rule="evenodd" clip-rule="evenodd" fill="#5E5F5F" d="M429.667,298.335c-0.295,0.405-0.739,1.033-1.332,1.884
		c-0.59,0.854-1.278,1.819-2.059,2.895c-0.781,1.076-1.604,2.188-2.47,3.331c-0.867,1.145-1.722,2.187-2.566,3.128
		c-1.689,1.929-3.348,3.531-4.975,4.81c-1.625,1.281-3.251,2.312-4.878,3.098c-1.626,0.784-3.231,1.334-4.814,1.647
		c-1.584,0.313-3.179,0.471-4.784,0.471c-1.648,0-3.295-0.303-4.942-0.908s-3.116-1.526-4.403-2.76
		c-1.289-1.233-2.345-2.801-3.168-4.709c-0.825-1.906-1.236-4.182-1.236-6.828c0-1.794,0.264-3.512,0.792-5.147
		c0.528-1.639,1.288-3.084,2.281-4.341c0.992-1.257,2.196-2.253,3.611-2.993c1.416-0.74,3.011-1.11,4.784-1.11
		c0.971,0,1.774,0.145,2.408,0.438c0.633,0.29,1.141,0.638,1.521,1.04c0.38,0.404,0.644,0.82,0.792,1.245
		c0.147,0.426,0.221,0.774,0.221,1.044c0,1.256-0.348,2.175-1.046,2.759c-0.695,0.584-1.509,0.874-2.438,0.874
		c-0.761,0-1.352-0.192-1.774-0.571c-0.421-0.382-0.803-0.753-1.14-1.108c-0.549-0.585-1.024-0.945-1.426-1.079
		c-0.4-0.135-0.791-0.2-1.171-0.2c-0.338,0-0.771,0.156-1.299,0.469c-0.528,0.316-1.046,0.774-1.552,1.38
		c-0.508,0.607-0.95,1.367-1.331,2.287c-0.381,0.922-0.57,2.03-0.57,3.332c0,2.151,0.401,3.913,1.205,5.282
		c0.801,1.368,1.815,2.443,3.041,3.229s2.556,1.324,3.992,1.616c1.436,0.292,2.766,0.437,3.992,0.437
		c2.704,0,5.237-0.527,7.602-1.581c2.366-1.054,4.647-2.513,6.843-4.375c2.197-1.86,4.34-4.037,6.432-6.526
		c2.091-2.489,4.192-5.192,6.303-8.107c1.649-2.242,3.221-4.371,4.722-6.393c1.499-2.015,2.903-3.869,4.212-5.55
		c1.311-1.682,2.493-3.14,3.549-4.373c1.057-1.233,1.942-2.188,2.662-2.859c0.76-0.719,1.542-1.369,2.344-1.95
		c0.802-0.585,1.679-1.078,2.629-1.481s1.996-0.719,3.137-0.944c1.14-0.222,2.45-0.335,3.928-0.335c2.408,0,4.372,0.381,5.892,1.146
		c1.521,0.761,2.282,1.771,2.282,3.028c0,0.403-0.169,0.76-0.507,1.075c-0.338,0.315-0.76,0.472-1.267,0.472
		c-0.634,0-1.141-0.156-1.521-0.472s-0.675-0.652-0.887-1.01c-0.212-0.314-0.549-0.617-1.014-0.907
		c-0.465-0.293-0.929-0.438-1.394-0.438c-0.633,0-1.152,0.291-1.551,0.876c-0.402,0.581-0.856,1.702-1.364,3.363l-9.313,30.883
		c-0.507,1.614-0.76,2.871-0.76,3.768c0,1.345-0.127,2.321-0.381,2.928c-0.252,0.604-0.633,1.007-1.14,1.21
		c-0.507,0.204-1.141,0.279-1.901,0.236c-0.759-0.045-1.647-0.068-2.66-0.068c-1.437,0-2.439-0.123-3.01-0.371
		c-0.57-0.244-0.877-0.616-0.918-1.108c-0.042-0.493,0.096-1.133,0.411-1.918c0.317-0.783,0.645-1.693,0.983-2.725l3.357-10.431
		H429.667L429.667,298.335z M441.515,295.78l6.463-19.782c0.169-0.492,0.179-0.841,0.032-1.042
		c-0.147-0.203-0.286-0.304-0.412-0.304c-0.126,0-0.339,0.101-0.634,0.304c-0.295,0.201-0.613,0.461-0.951,0.774
		c-0.422,0.403-0.982,1.03-1.679,1.884c-0.697,0.851-1.478,1.861-2.344,3.026c-0.867,1.167-1.773,2.423-2.725,3.769
		c-0.95,1.345-1.9,2.69-2.851,4.037c-0.95,1.347-1.849,2.655-2.693,3.937c-0.844,1.278-1.563,2.411-2.155,3.397H441.515
		L441.515,295.78z M464.449,311.322c-0.338,0-0.56-0.101-0.666-0.302c-0.105-0.202-0.158-0.416-0.158-0.638
		c0-0.36,0.063-0.819,0.191-1.38c0.126-0.562,0.4-1.471,0.822-2.726l3.423-10.293c0.634-1.976,1.13-3.513,1.488-4.609
		c0.36-1.1,0.539-2.031,0.539-2.795c0-0.672-0.254-1.3-0.76-1.884c-0.506-0.582-1.245-0.763-2.218-0.538
		c-1.858,0.359-3.294,0.729-4.308,1.111c-1.014,0.381-1.763,0.762-2.25,1.143c-0.486,0.383-0.739,0.729-0.76,1.044
		c-0.021,0.314,0.053,0.595,0.222,0.842c0.17,0.245,0.38,0.438,0.633,0.571c0.255,0.135,0.444,0.2,0.571,0.2
		c0.549,0,0.824,0.294,0.824,0.875c0,0.403-0.083,0.91-0.254,1.515c-0.168,0.606-0.401,1.357-0.697,2.253l-1.71,5.317
		c-0.675,2.063-1.246,3.813-1.71,5.248c-0.464,1.435-0.845,2.646-1.141,3.632c-0.295,0.987-0.517,1.763-0.665,2.322
		c-0.148,0.561-0.222,0.999-0.222,1.313c0,0.492,0.169,0.952,0.507,1.381c0.338,0.424,0.993,0.638,1.963,0.638
		c1.437,0,2.714-0.225,3.833-0.674c1.119-0.446,1.984-0.93,2.598-1.447c0.613-0.516,0.94-0.996,0.982-1.445
		C465.568,311.547,465.209,311.322,464.449,311.322L464.449,311.322z M467.806,271.156c-1.098,0-2.026,0.425-2.787,1.278
		c-0.761,0.85-1.141,1.792-1.141,2.823c0,1.302,0.369,2.311,1.108,3.029c0.74,0.716,1.721,1.076,2.947,1.076
		c0.591,0,1.15-0.136,1.678-0.403c0.529-0.271,0.993-0.618,1.395-1.044c0.401-0.426,0.719-0.896,0.95-1.413
		c0.232-0.515,0.348-1.042,0.348-1.581c0-1.031-0.37-1.916-1.108-2.658C470.458,271.524,469.327,271.156,467.806,271.156
		L467.806,271.156z M473.57,314.888c-0.549,0-0.74-0.202-0.571-0.604l3.041-10.9c0.254-0.941,0.56-2.017,0.919-3.229
		c0.359-1.213,0.697-2.39,1.013-3.532c0.317-1.144,0.582-2.176,0.793-3.097c0.21-0.919,0.316-1.533,0.316-1.851
		c0-0.358-0.095-0.66-0.285-0.906c-0.191-0.247-0.455-0.371-0.792-0.371c-0.085,0-0.296-0.066-0.634-0.199
		c-0.338-0.135-0.476-0.361-0.412-0.675c0.063-0.314,0.476-0.752,1.236-1.313c0.76-0.56,2.217-1.243,4.371-2.052
		c0.591-0.225,1.099-0.27,1.521-0.134c0.423,0.134,0.76,0.358,1.015,0.672c0.252,0.314,0.442,0.674,0.569,1.079
		c0.127,0.402,0.191,0.762,0.191,1.074c0,0.629-0.264,1.715-0.792,3.265c-0.527,1.547-1.172,3.418-1.933,5.617l0.698,0.402
		c0.38-0.939,0.909-2.085,1.583-3.431c0.677-1.346,1.438-2.655,2.282-3.935c0.845-1.28,1.796-2.367,2.851-3.264
		c1.056-0.896,2.154-1.347,3.295-1.347c0.929,0,1.763,0.336,2.503,1.01c0.739,0.674,1.109,1.548,1.109,2.625
		c0,0.582-0.096,1.143-0.287,1.682c-0.189,0.538-0.431,1.008-0.728,1.411c-0.296,0.406-0.603,0.72-0.918,0.944
		c-0.317,0.226-0.624,0.335-0.918,0.335c-0.889,0-1.585-0.178-2.092-0.537c-0.252-0.179-0.507-0.36-0.76-0.538
		c-0.254-0.182-0.591-0.271-1.014-0.271c-0.506,0-1.077,0.292-1.71,0.876c-0.634,0.582-1.267,1.312-1.9,2.188
		c-0.634,0.875-1.236,1.827-1.806,2.859c-0.57,1.032-1.024,1.973-1.362,2.825c-0.339,0.808-0.676,1.705-1.014,2.691
		c-0.338,0.987-0.696,2.109-1.078,3.364l-2.027,6.797c-0.126,0.313-0.401,0.47-0.824,0.47H473.57L473.57,314.888z M526.787,293.896
		c-0.083,0.358-0.232,0.92-0.442,1.681c-0.211,0.763-0.422,1.595-0.634,2.491c-0.21,0.897-0.391,1.817-0.539,2.759
		c-0.148,0.943-0.221,1.793-0.221,2.557c0,1.972,0.306,3.521,0.917,4.642c0.612,1.123,1.331,1.984,2.154,2.592
		c0.824,0.604,1.647,0.986,2.471,1.144c0.824,0.157,1.425,0.235,1.805,0.235c1.605,0,3.147-0.235,4.627-0.707
		c1.477-0.471,2.702-1.132,3.673-1.985c1.521-1.256,2.842-2.916,3.961-4.979c1.119-2.063,2.143-4.955,3.073-8.679l3.865-15.476
		c0.38-1.391,0.697-2.714,0.949-3.969c0.253-1.257,0.529-2.354,0.825-3.298c0.295-0.941,0.665-1.694,1.108-2.253
		c0.445-0.563,1.045-0.841,1.806-0.841c0.929,0,1.627,0.011,2.091,0.032c0.464,0.022,0.697,0.326,0.697,0.908
		c0,0.585-0.232,1.548-0.697,2.895c-0.464,1.345-1.162,3.319-2.091,5.92l-4.815,16.553c-0.844,2.914-1.794,5.585-2.852,8.005
		c-1.055,2.423-2.386,4.51-3.991,6.261c-1.606,1.748-3.549,3.104-5.83,4.069c-2.281,0.964-5.069,1.445-8.363,1.445
		c-1.985,0-3.833-0.245-5.543-0.738c-1.711-0.493-3.189-1.258-4.436-2.287c-1.246-1.033-2.228-2.311-2.946-3.838
		c-0.718-1.524-1.077-3.341-1.077-5.449c0-0.718,0.051-1.49,0.158-2.32c0.106-0.83,0.232-1.637,0.379-2.423
		c0.148-0.784,0.296-1.502,0.443-2.153c0.149-0.649,0.265-1.156,0.348-1.515l5.387-18.771c0.21-0.764,0.422-1.548,0.633-2.354
		c0.211-0.808,0.529-1.526,0.952-2.155c0.422-0.625,1.014-1.143,1.773-1.546c0.76-0.402,1.816-0.582,3.168-0.537
		c1.268,0.044,2.207,0.067,2.819,0.067c0.612,0,0.961,0.157,1.046,0.47c0.085,0.313-0.011,0.887-0.286,1.715
		c-0.274,0.831-0.665,2.12-1.172,3.871L526.787,293.896L526.787,293.896z M558.212,314.888h5.386c0.337,0,0.559-0.034,0.664-0.1
		c0.105-0.068,0.201-0.17,0.285-0.304l2.472-7.535c0.211-0.583,0.602-1.381,1.172-2.389c0.57-1.01,1.214-2.097,1.932-3.263
		c0.633-1.079,1.373-2.198,2.218-3.366c0.845-1.164,1.688-2.221,2.535-3.161c0.844-0.941,1.615-1.716,2.312-2.321
		c0.698-0.605,1.235-0.909,1.616-0.909c0.845,0,1.267,0.494,1.267,1.48c0,0.314-0.084,0.797-0.253,1.447
		c-0.168,0.649-0.38,1.401-0.634,2.253c-0.253,0.853-0.528,1.729-0.823,2.623c-0.296,0.9-0.57,1.729-0.824,2.491
		c-0.972,2.961-1.764,5.406-2.376,7.335c-0.612,1.929-0.918,3.207-0.918,3.835c0,0.673,0.18,1.312,0.539,1.919
		c0.358,0.604,1.024,0.816,1.996,0.638c2.323-0.448,3.959-0.921,4.91-1.413c0.951-0.494,1.521-0.951,1.711-1.381
		c0.19-0.424,0.148-0.783-0.126-1.075c-0.274-0.293-0.475-0.437-0.602-0.437c-0.549,0-0.824-0.383-0.824-1.146
		c0-0.401,0.15-1.076,0.445-2.016c0.295-0.945,0.822-2.559,1.584-4.846c0.674-2.063,1.256-3.811,1.741-5.25
		c0.485-1.434,0.866-2.633,1.141-3.6c0.275-0.962,0.475-1.735,0.602-2.319c0.127-0.582,0.19-1.054,0.19-1.413
		c0-0.451-0.084-0.941-0.254-1.479c-0.169-0.539-0.423-1.032-0.76-1.481c-0.337-0.447-0.76-0.818-1.266-1.108
		c-0.508-0.294-1.099-0.439-1.775-0.439c-1.562,0-3.052,0.481-4.467,1.446c-1.415,0.964-2.713,2.086-3.896,3.363
		c-1.184,1.281-2.207,2.591-3.073,3.938c-0.867,1.346-1.532,2.379-1.996,3.094l-0.57-0.471c0.844-2.105,1.563-3.97,2.154-5.584
		c0.59-1.613,0.887-2.668,0.887-3.161c0-0.538-0.179-1.11-0.539-1.717c-0.359-0.606-1.024-0.908-1.995-0.908
		c-1.943,0-3.37,0.236-4.277,0.708c-0.909,0.47-1.5,0.985-1.775,1.546c-0.273,0.561-0.358,1.076-0.252,1.549
		c0.106,0.469,0.222,0.706,0.349,0.706c0.548,0,0.823,0.359,0.823,1.075c0,0.226-0.084,0.641-0.254,1.248
		c-0.169,0.604-0.38,1.344-0.633,2.219c-0.254,0.874-0.55,1.827-0.888,2.859c-0.337,1.032-0.696,2.086-1.077,3.162l-4.373,12.919
		C557.472,314.641,557.662,314.888,558.212,314.888L558.212,314.888z M604.523,288.177h6.4c0.337,0,0.443,0.203,0.317,0.605
		l-0.443,1.749c-0.127,0.403-0.402,0.605-0.825,0.605h-6.398l-5.196,14.802c-0.169,0.54-0.358,1.166-0.57,1.886
		c-0.21,0.716-0.317,1.277-0.317,1.681c0,0.358,0.116,0.662,0.349,0.91c0.233,0.244,0.581,0.368,1.046,0.368
		c0.21,0,0.497,0.056,0.856,0.169c0.358,0.114,0.664,0.257,0.918,0.437s0.37,0.414,0.349,0.707
		c-0.021,0.293-0.285,0.605-0.792,0.941c-0.507,0.338-1.32,0.72-2.439,1.145c-1.119,0.426-2.693,0.886-4.72,1.38
		c-0.548,0.136-1.024,0.136-1.425,0s-0.74-0.338-1.014-0.605c-0.275-0.271-0.485-0.574-0.633-0.909
		c-0.147-0.337-0.222-0.639-0.222-0.907c0-0.673,0.052-1.369,0.158-2.086c0.104-0.719,0.284-1.414,0.538-2.088l5.766-17.829h-4.942
		c-0.422,0-0.549-0.246-0.38-0.74l0.38-1.749c0.128-0.313,0.359-0.471,0.697-0.471h5.259l3.421-9.822
		c0.127-0.361,0.306-0.597,0.54-0.709c0.231-0.111,0.77-0.19,1.614-0.234c1.183-0.092,2.208-0.124,3.074-0.102
		c0.865,0.021,1.594,0.035,2.185,0.035c0.211,0,0.371,0.145,0.476,0.436c0.105,0.292,0.116,0.55,0.031,0.774L604.523,288.177
		L604.523,288.177z M637.784,286.832h-5.64c-0.549,0-0.865,0.155-0.951,0.471l-2.027,6.458c-0.465,1.436-0.897,2.636-1.298,3.601
		c-0.402,0.964-0.877,1.939-1.426,2.926c-0.379,0.672-0.993,1.581-1.837,2.726s-1.71,2.268-2.598,3.364
		c-0.887,1.099-1.71,2.041-2.471,2.826c-0.76,0.783-1.266,1.179-1.52,1.179s-0.497-0.113-0.729-0.339
		c-0.232-0.223-0.349-0.515-0.349-0.873c0-0.63,0.243-1.661,0.729-3.097c0.485-1.435,1.129-3.186,1.933-5.247
		c1.268-3.317,2.154-5.875,2.661-7.672c0.506-1.792,0.76-3.071,0.76-3.834c0-0.402-0.085-0.831-0.254-1.278
		c-0.168-0.449-0.391-0.842-0.665-1.177c-0.275-0.338-0.612-0.585-1.013-0.74c-0.402-0.158-0.855-0.146-1.363,0.032
		c-1.732,0.585-3.063,1.101-3.991,1.548c-0.93,0.449-1.574,0.831-1.933,1.144c-0.359,0.314-0.506,0.562-0.443,0.742
		c0.064,0.179,0.19,0.324,0.38,0.436c0.19,0.111,0.392,0.188,0.603,0.236c0.211,0.044,0.274,0.067,0.189,0.067
		c0.719,0,1.078,0.381,1.078,1.144c0,0.448-0.211,1.38-0.634,2.792c-0.421,1.412-1.056,3.243-1.901,5.483
		c-0.633,1.659-1.193,3.105-1.679,4.341c-0.486,1.232-0.886,2.344-1.204,3.33c-0.317,0.987-0.549,1.862-0.698,2.623
		c-0.147,0.764-0.221,1.504-0.221,2.221c-0.042,0.269,0.031,0.596,0.221,0.976c0.19,0.382,0.444,0.739,0.76,1.077
		c0.318,0.337,0.677,0.628,1.078,0.876c0.4,0.246,0.813,0.369,1.236,0.369c1.563,0,3.073-0.494,4.529-1.48
		c1.458-0.987,2.811-2.177,4.056-3.565c1.246-1.391,2.333-2.815,3.262-4.273c0.93-1.458,1.69-2.658,2.282-3.601l0.697,0.403
		c-0.168,0.495-0.423,1.246-0.761,2.256c-0.337,1.009-0.686,2.051-1.044,3.128c-0.36,1.076-0.666,2.076-0.919,2.995
		c-0.254,0.92-0.379,1.535-0.379,1.85c0,0.717,0.242,1.356,0.729,1.919c0.486,0.559,1.13,0.683,1.932,0.369
		c1.689-0.628,2.999-1.18,3.928-1.648c0.929-0.473,1.605-0.863,2.028-1.178c0.421-0.314,0.634-0.572,0.634-0.775
		c0-0.2-0.085-0.357-0.254-0.47c-0.169-0.112-0.349-0.191-0.538-0.234c-0.191-0.047-0.265-0.07-0.222-0.07
		c-0.212,0-0.391-0.053-0.54-0.166c-0.147-0.111-0.242-0.325-0.285-0.638c0-0.272,0.168-1.045,0.507-2.324
		c0.337-1.276,0.929-3.262,1.774-5.952l4.436-14.4C638.63,287.123,638.418,286.832,637.784,286.832L637.784,286.832z
		 M648.552,301.77c1.268,0.269,2.567,0.099,3.897-0.506c1.331-0.605,2.556-1.423,3.675-2.457c1.119-1.031,2.037-2.163,2.756-3.396
		c0.719-1.235,1.076-2.321,1.076-3.265c0-0.404-0.127-0.783-0.379-1.143c-0.254-0.359-0.613-0.538-1.078-0.538
		c-0.422,0-0.96,0.212-1.616,0.636c-0.653,0.429-1.319,0.934-1.994,1.517c-0.676,0.583-1.289,1.155-1.838,1.716
		s-0.929,0.975-1.141,1.243c-0.296,0.36-0.635,0.763-1.015,1.213c-0.379,0.448-0.676,0.873-0.885,1.278L648.552,301.77
		L648.552,301.77z M637.782,314.888c-0.254,0-0.422-0.111-0.507-0.335c-0.084-0.227-0.084-0.45,0-0.672l15.713-44.344l7.286-0.269
		c0.338,0,0.518,0.146,0.538,0.438c0.021,0.292-0.031,0.596-0.159,0.908l-9.565,22.943l0.442,0.271
		c0.508-0.72,1.173-1.526,1.997-2.423c0.823-0.898,1.732-1.739,2.723-2.523c0.994-0.785,2.039-1.436,3.139-1.952
		c1.098-0.514,2.196-0.773,3.294-0.773c1.223,0,2.259,0.359,3.103,1.077c0.848,0.718,1.27,1.815,1.27,3.297
		c0,1.391-0.465,2.702-1.395,3.937c-0.929,1.233-2.028,2.344-3.294,3.33c-1.268,0.987-2.557,1.839-3.866,2.557
		c-1.309,0.718-2.364,1.233-3.167,1.55v0.537l4.688,7.602c0.548,0.853,1.014,1.447,1.393,1.783c0.381,0.337,0.739,0.507,1.077,0.507
		c0.256,0,0.613,0.111,1.077,0.335c0.466,0.224,0.698,0.504,0.698,0.842c0,0.336-0.381,0.694-1.141,1.075s-2.24,0.704-4.437,0.977
		c-1.732,0.225-3.019-0.033-3.864-0.773c-0.844-0.741-1.583-1.829-2.219-3.265l-2.723-6.728c-0.212-0.494-0.507-0.82-0.888-0.975
		c-0.381-0.158-0.76-0.237-1.141-0.237l-3.548,10.834c-0.084,0.313-0.4,0.47-0.95,0.47H637.782L637.782,314.888z M772.289,269.809
		c-0.76,2.646-1.593,5.651-2.502,9.016c-0.908,3.364-1.827,6.796-2.757,10.293c-0.928,3.5-1.838,6.921-2.724,10.261
		c-0.887,3.343-1.646,6.359-2.28,9.051c-0.423,1.66-0.19,2.49,0.696,2.49c1.438,0,2.41,0.226,2.915,0.673
		c0.506,0.446,0.496,0.964-0.032,1.548c-0.527,0.583-1.594,1.144-3.199,1.681c-1.605,0.539-3.823,0.898-6.653,1.076
		c-1.013,0.091-1.762-0.122-2.248-0.64c-0.486-0.515-0.751-0.974-0.792-1.376c-0.086-0.63-0.034-1.403,0.157-2.323
		c0.191-0.919,0.433-1.963,0.729-3.129c1.395-5.563,2.809-11.067,4.245-16.518c1.436-5.452,2.894-10.846,4.372-16.182
		c0.168-0.583,0.179-0.909,0.03-0.978c-0.146-0.066-0.327,0.014-0.538,0.236c-0.043,0.046-0.423,0.617-1.141,1.717
		c-0.718,1.098-1.658,2.511-2.818,4.239c-1.163,1.726-2.473,3.698-3.929,5.921c-1.457,2.22-2.946,4.497-4.467,6.828
		c-1.521,2.334-3.021,4.632-4.499,6.896c-1.479,2.266-2.818,4.297-4.023,6.09c-1.203,1.797-2.197,3.297-2.979,4.507
		c-0.781,1.211-1.234,1.908-1.361,2.088c-0.719,1.077-1.457,1.614-2.218,1.614c-0.676,0-1.076-0.515-1.204-1.547
		c-0.041-0.181-0.137-1.178-0.283-2.994c-0.148-1.816-0.34-4.048-0.571-6.695c-0.231-2.646-0.475-5.495-0.729-8.545
		c-0.254-3.049-0.476-5.898-0.665-8.545c-0.191-2.646-0.359-4.867-0.508-6.662c-0.148-1.793-0.222-2.782-0.222-2.958
		c0-0.497-0.105-0.741-0.316-0.741s-0.401,0.244-0.57,0.741c-0.296,0.94-0.675,2.195-1.14,3.766
		c-0.465,1.571-1.026,3.343-1.681,5.316s-1.403,4.071-2.248,6.291s-1.775,4.453-2.789,6.694c-1.013,2.243-2.121,4.429-3.326,6.56
		c-1.202,2.132-2.48,4.071-3.834,5.82c-1.309,1.705-2.725,3.286-4.243,4.744c-1.521,1.459-3.169,2.715-4.943,3.767
		c-1.772,1.055-3.685,1.885-5.733,2.491c-2.047,0.605-4.277,0.908-6.684,0.908c-1.731,0-3.475-0.348-5.229-1.043
		c-1.751-0.696-3.335-1.739-4.75-3.129c-1.416-1.389-2.567-3.117-3.454-5.181c-0.886-2.063-1.331-4.486-1.331-7.268
		c0-2.196,0.328-4.16,0.981-5.888c0.656-1.727,1.511-3.195,2.566-4.405c1.057-1.213,2.262-2.132,3.612-2.759
		c1.352-0.63,2.725-0.943,4.118-0.943c1.479,0,2.682,0.449,3.612,1.347c0.928,0.896,1.395,2.086,1.395,3.565
		c0,0.897-0.297,1.694-0.889,2.388c-0.592,0.697-1.499,1.045-2.725,1.045c-0.972,0-1.679-0.281-2.123-0.844
		c-0.442-0.558-0.834-1.063-1.172-1.512c-0.464-0.626-1.014-0.942-1.646-0.942c-0.592,0-1.194,0.181-1.806,0.538
		c-0.612,0.358-1.163,0.908-1.647,1.648c-0.486,0.741-0.887,1.648-1.204,2.725c-0.317,1.077-0.475,2.312-0.475,3.702
		c0,1.3,0.284,2.601,0.854,3.901c0.57,1.302,1.395,2.467,2.472,3.501c1.076,1.03,2.387,1.86,3.928,2.489
		c1.542,0.627,3.306,0.939,5.292,0.939c3.716,0,7.179-0.84,10.391-2.521c3.21-1.683,6.272-4.205,9.186-7.569
		c1.646-1.884,3.21-4.184,4.688-6.899c1.479-2.713,2.82-5.459,4.023-8.241c1.203-2.78,2.251-5.45,3.137-8.005
		c0.887-2.558,1.605-4.644,2.154-6.26c0.338-1.031,0.433-1.67,0.285-1.916c-0.147-0.248-0.581-0.372-1.299-0.372
		c-0.973,0-2.048-0.021-3.231-0.064c-1.182-0.047-2.408-0.047-3.675,0c-1.268,0.043-2.555,0.134-3.864,0.269
		c-1.311,0.135-2.598,0.358-3.864,0.673c-1.732,0.492-3.159,1.087-4.278,1.781c-1.12,0.695-1.679,1.494-1.679,2.389
		c0,0.405,0.117,0.875,0.35,1.414c0.23,0.537,0.918,0.897,2.057,1.076c1.268,0.225,2.188,0.652,2.759,1.277
		c0.57,0.631,0.854,1.259,0.854,1.885c0,1.481-0.412,2.534-1.235,3.162c-0.824,0.629-1.616,0.945-2.378,0.945
		c-0.885,0-1.646-0.271-2.278-0.811c-0.635-0.538-1.162-1.21-1.584-2.018s-0.729-1.684-0.919-2.624
		c-0.191-0.942-0.286-1.84-0.286-2.691c0-1.749,0.401-3.375,1.205-4.88c0.801-1.502,1.942-2.791,3.421-3.867
		c1.352-0.987,2.936-1.727,4.751-2.221c1.816-0.494,3.918-0.842,6.305-1.044c2.387-0.201,5.11-0.29,8.174-0.268
		c3.062,0.021,6.536,0.034,10.423,0.034c0.717,0,1.192,0.145,1.425,0.436c0.232,0.294,0.349,0.684,0.349,1.178
		c0,0.271,0.042,1.135,0.127,2.592c0.084,1.457,0.178,3.208,0.285,5.246c0.105,2.042,0.23,4.241,0.379,6.596
		c0.148,2.354,0.286,4.586,0.413,6.693c0.127,2.109,0.23,3.926,0.316,5.449c0.084,1.526,0.146,2.493,0.189,2.896
		c0.043,0.493,0.189,0.762,0.443,0.808c0.254,0.044,0.508-0.136,0.761-0.538l19.957-30.347c0.254-0.359,0.541-0.615,0.856-0.774
		c0.316-0.159,0.855-0.233,1.616-0.233H772.289z"/>
	<path fill-rule="evenodd" clip-rule="evenodd" fill="#5E5F5F" d="M793.576,308.159c0.209,0.181,0.254,0.405,0.127,0.673
		c-0.297,0.628-0.803,1.324-1.521,2.087s-1.595,1.49-2.63,2.185c-1.035,0.698-2.229,1.278-3.58,1.75
		c-1.352,0.473-2.809,0.708-4.372,0.708c-2.154,0-3.929-0.65-5.321-1.951c-1.395-1.301-2.092-3.162-2.092-5.586
		c0-1.256,0.139-2.611,0.412-4.068c0.274-1.459,0.707-2.95,1.299-4.476c0.592-1.524,1.384-3.027,2.377-4.509
		c0.992-1.479,2.185-2.846,3.579-4.104c1.563-1.436,3.242-2.583,5.037-3.431c1.794-0.854,3.643-1.28,5.545-1.28
		c1.772,0,3.04,0.45,3.801,1.347s1.14,1.994,1.14,3.297c0,1.883-0.496,3.532-1.487,4.945c-0.994,1.414-2.419,2.68-4.277,3.801
		c-1.774,1.031-3.464,1.76-5.069,2.188c-1.605,0.425-3.021,0.686-4.245,0.773c-0.127,0.314-0.243,0.863-0.349,1.649
		c-0.105,0.784-0.157,1.647-0.157,2.588c0,1.168,0.295,2.188,0.886,3.064c0.591,0.873,1.438,1.312,2.535,1.312
		c1.563,0,2.915-0.371,4.056-1.112c1.139-0.737,2.067-1.533,2.787-2.388c0.168-0.27,0.337-0.338,0.507-0.201L793.576,308.159
		L793.576,308.159z M782.805,300.019c0.549,0.043,1.415-0.158,2.597-0.604c1.184-0.449,2.24-1.146,3.168-2.087
		c0.507-0.492,0.972-1.256,1.394-2.289c0.422-1.03,0.635-2.106,0.635-3.229c0-0.538-0.105-1.055-0.318-1.547
		c-0.209-0.493-0.676-0.74-1.393-0.74c-0.592,0-1.204,0.336-1.839,1.009c-0.633,0.673-1.225,1.535-1.772,2.591
		c-0.55,1.053-1.035,2.197-1.458,3.432C783.396,297.786,783.057,298.941,782.805,300.019L782.805,300.019z M799.465,314.888
		c-0.549,0-0.74-0.247-0.57-0.739l4.372-12.919c0.381-1.076,0.74-2.13,1.077-3.162c0.339-1.032,0.634-1.985,0.888-2.859
		c0.252-0.875,0.464-1.615,0.634-2.219c0.169-0.607,0.253-1.022,0.253-1.248c0-0.716-0.274-1.075-0.824-1.075
		c-0.126,0-0.243-0.237-0.35-0.706c-0.104-0.473-0.019-0.988,0.254-1.549c0.276-0.561,0.867-1.076,1.775-1.546
		c0.908-0.472,2.333-0.708,4.276-0.708c0.972,0,1.637,0.302,1.996,0.908s0.538,1.179,0.538,1.717c0,0.493-0.295,1.548-0.887,3.161
		c-0.592,1.614-1.311,3.479-2.154,5.584l0.57,0.471c0.465-0.715,1.13-1.748,1.995-3.094c0.867-1.347,1.892-2.656,3.074-3.938
		c1.182-1.277,2.481-2.399,3.896-3.363c1.416-0.965,2.903-1.446,4.467-1.446c0.675,0,1.266,0.146,1.773,0.439
		c0.507,0.29,0.93,0.661,1.268,1.108c0.338,0.449,0.591,0.942,0.76,1.481c0.169,0.538,0.255,1.028,0.255,1.479
		c0,0.359-0.063,0.831-0.191,1.413c-0.126,0.584-0.328,1.357-0.602,2.319c-0.273,0.967-0.655,2.166-1.141,3.6
		c-0.486,1.439-1.065,3.187-1.742,5.25c-0.761,2.287-1.289,3.9-1.584,4.846c-0.296,0.939-0.444,1.614-0.444,2.016
		c0,0.764,0.274,1.146,0.825,1.146c0.126,0,0.327,0.144,0.602,0.437c0.274,0.292,0.316,0.651,0.125,1.075
		c-0.189,0.43-0.76,0.887-1.71,1.381c-0.949,0.492-2.587,0.965-4.91,1.413c-0.971,0.179-1.636-0.033-1.995-0.638
		c-0.359-0.607-0.539-1.246-0.539-1.919c0-0.628,0.307-1.906,0.918-3.835c0.613-1.929,1.405-4.374,2.376-7.335
		c0.254-0.763,0.528-1.591,0.823-2.491c0.298-0.894,0.57-1.771,0.824-2.623c0.254-0.852,0.465-1.604,0.635-2.253
		c0.168-0.65,0.253-1.133,0.253-1.447c0-0.986-0.423-1.48-1.268-1.48c-0.379,0-0.918,0.304-1.615,0.909
		c-0.696,0.605-1.469,1.38-2.313,2.321c-0.846,0.94-1.689,1.997-2.534,3.161c-0.844,1.168-1.584,2.287-2.219,3.366
		c-0.717,1.166-1.362,2.253-1.932,3.263c-0.57,1.008-0.96,1.806-1.171,2.389l-2.472,7.535c-0.085,0.134-0.181,0.235-0.285,0.304
		c-0.106,0.065-0.329,0.1-0.665,0.1H799.465L799.465,314.888z M838.492,334.871c2.576,0,4.678-0.214,6.305-0.639
		c1.625-0.427,3.113-1.021,4.465-1.783c1.015-0.537,1.85-1.132,2.504-1.782c0.654-0.651,1.162-1.313,1.52-1.985
		c0.359-0.674,0.603-1.335,0.729-1.985c0.127-0.649,0.19-1.268,0.19-1.849c0-1.032-0.339-2.143-1.014-3.331
		c-0.677-1.191-1.985-2.369-3.93-3.534c-2.322-1.389-4.265-2.511-5.829-3.364c-1.562-0.854-2.659-1.458-3.294-1.816
		c-0.296-0.179-0.633-0.458-1.014-0.842c-0.381-0.379-0.57-0.751-0.57-1.108c0-0.494,0.189-1.011,0.57-1.549
		c0.381-0.537,0.909-0.963,1.584-1.278c0.084-0.046,0.401-0.102,0.95-0.167c0.549-0.068,1.184-0.146,1.9-0.236
		c1.817-0.27,3.412-0.908,4.785-1.916c1.372-1.01,2.513-2.154,3.421-3.434c0.908-1.278,1.584-2.556,2.027-3.834
		c0.443-1.277,0.666-2.321,0.666-3.13c0-0.762-0.022-1.446-0.063-2.051c-0.044-0.605-0.148-1.111-0.316-1.516
		c0.38-0.402,0.844-0.604,1.394-0.604c0.212,0,0.4,0.078,0.57,0.237c0.168,0.155,0.337,0.324,0.506,0.503
		c0.254,0.269,0.56,0.505,0.919,0.708c0.359,0.2,0.729,0.3,1.11,0.3c0.758,0,1.381-0.258,1.867-0.771
		c0.486-0.518,0.75-1.223,0.792-2.12c-0.042-0.718-0.295-1.414-0.76-2.086c-0.464-0.673-1.204-1.011-2.218-1.011
		c-0.973,0-1.922,0.271-2.852,0.809c-0.929,0.539-1.731,1.077-2.407,1.615c-0.168-0.271-0.422-0.583-0.762-0.94
		c-0.336-0.36-0.78-0.708-1.329-1.045c-0.549-0.338-1.225-0.616-2.027-0.842c-0.803-0.222-1.732-0.336-2.789-0.336
		c-2.196,0-4.129,0.439-5.796,1.313c-1.668,0.873-3.073,1.951-4.214,3.229c-1.14,1.278-1.996,2.646-2.566,4.106
		c-0.57,1.456-0.854,2.79-0.854,4.001c0,1.212,0.104,2.256,0.316,3.131c0.21,0.872,0.526,1.625,0.95,2.252
		c0.422,0.627,0.971,1.199,1.646,1.717c0.676,0.517,1.5,1.02,2.472,1.514v0.135c-1.733,0.762-3.115,1.604-4.15,2.522
		s-1.553,1.761-1.553,2.524c0,0.761,0.17,1.457,0.507,2.084c0.338,0.629,0.993,1.324,1.965,2.088
		c-1.014,0.445-2.292,1.03-3.834,1.749c-1.543,0.719-2.968,1.637-4.276,2.757c-1.099,0.944-1.785,1.762-2.059,2.456
		c-0.275,0.697-0.413,1.604-0.413,2.725c0,1.122,0.359,2.188,1.078,3.197c0.717,1.01,1.71,1.906,2.978,2.69
		c1.268,0.785,2.776,1.401,4.53,1.85C834.574,334.648,836.463,334.871,838.492,334.871L838.492,334.871z M839.695,302.24
		c0-0.941,0-1.783,0-2.523c0-0.741,0.074-1.479,0.222-2.222c0.148-0.738,0.402-1.57,0.76-2.489c0.359-0.921,0.878-2.028,1.553-3.331
		c0.592-1.166,1.13-1.984,1.616-2.455c0.484-0.472,1.087-0.706,1.807-0.706c0.886,0,1.402,0.358,1.551,1.078
		c0.149,0.716,0.223,1.771,0.223,3.161c0,1.303-0.148,2.69-0.443,4.172c-0.296,1.479-0.709,2.849-1.237,4.104
		c-0.527,1.255-1.149,2.299-1.867,3.129c-0.719,0.828-1.479,1.244-2.281,1.244c-0.677,0-1.161-0.235-1.458-0.706
		C839.843,304.223,839.695,303.405,839.695,302.24L839.695,302.24z M840.265,332.381c-2.535,0-4.635-0.561-6.305-1.68
		c-1.668-1.122-2.502-2.894-2.502-5.315c0-1.795,0.465-3.229,1.394-4.31c0.93-1.075,2.049-2.041,3.359-2.892
		c0.295,0.226,0.727,0.505,1.297,0.843c0.571,0.334,1.162,0.683,1.775,1.042c0.613,0.357,1.184,0.695,1.711,1.007
		c0.526,0.316,0.876,0.52,1.046,0.606c0.886,0.541,1.635,1.022,2.248,1.447c0.612,0.428,1.088,0.841,1.425,1.245
		c0.338,0.404,0.583,0.853,0.729,1.347c0.147,0.494,0.222,1.099,0.222,1.815c0,0.852-0.211,1.582-0.634,2.187
		c-0.423,0.605-0.95,1.111-1.583,1.517c-0.635,0.402-1.321,0.693-2.06,0.873C841.648,332.293,840.94,332.381,840.265,332.381
		L840.265,332.381z M872.385,295.78l0.57,0.471c0.718-1.212,1.511-2.421,2.376-3.633c0.865-1.211,1.795-2.287,2.789-3.23
		c0.991-0.941,2.026-1.715,3.104-2.321c1.076-0.606,2.185-0.908,3.325-0.908c1.184,0,2.135,0.225,2.852,0.675
		c0.719,0.447,1.289,1.009,1.712,1.681c0.422,0.674,0.708,1.436,0.854,2.288c0.147,0.853,0.222,1.681,0.222,2.49
		c0,2.42-0.391,4.945-1.173,7.568c-0.781,2.626-1.741,5.012-2.881,7.165c-1.521,2.782-3.21,4.98-5.069,6.594
		c-1.859,1.617-3.929,2.424-6.21,2.424c-1.099,0-2.048-0.36-2.851-1.078s-1.184-1.793-1.141-3.229
		c-0.043-0.852,0.179-1.637,0.665-2.354c0.486-0.72,1.193-1.079,2.122-1.079c0.845,0,1.458,0.27,1.839,0.807
		c0.379,0.541,0.611,1.1,0.695,1.683c0.042,0.675,0.138,1.245,0.285,1.718c0.148,0.469,0.455,0.705,0.92,0.705
		c0.338,0,0.664-0.236,0.98-0.705c0.318-0.473,0.613-1.078,0.889-1.817c0.274-0.74,0.538-1.583,0.792-2.522
		c0.254-0.942,0.506-1.887,0.76-2.826c0.508-1.885,0.982-3.949,1.426-6.19c0.444-2.242,0.665-4.262,0.665-6.057
		c0-1.929-0.634-2.893-1.901-2.893c-0.592,0-1.255,0.293-1.995,0.875c-0.739,0.584-1.479,1.277-2.218,2.085
		s-1.457,1.648-2.154,2.523c-0.697,0.876-1.256,1.628-1.679,2.253c-0.761,1.121-1.415,2.223-1.964,3.299s-0.971,1.997-1.268,2.758
		l-3.61,9.421c-0.17,0.313-0.528,0.47-1.078,0.47h-5.069c-0.634,0-0.845-0.27-0.634-0.807l15.713-44.813h6.653
		c0.508,0,0.762,0.225,0.762,0.675c0,0.447-0.233,1.233-0.698,2.354L872.385,295.78L872.385,295.78z M903.365,311.322
		c0.76,0,1.119,0.226,1.077,0.674c-0.042,0.449-0.369,0.93-0.982,1.445c-0.611,0.518-1.479,1.001-2.597,1.447
		c-1.119,0.449-2.397,0.674-3.835,0.674c-0.97,0-1.625-0.214-1.963-0.638c-0.337-0.429-0.507-0.889-0.507-1.381
		c0-0.313,0.075-0.752,0.222-1.313c0.148-0.56,0.369-1.335,0.664-2.322c0.298-0.985,0.678-2.197,1.142-3.632
		c0.464-1.436,1.036-3.185,1.71-5.248l1.712-5.317c0.296-0.896,0.527-1.646,0.696-2.253c0.17-0.604,0.253-1.111,0.253-1.515
		c0-0.581-0.273-0.875-0.822-0.875c-0.127,0-0.317-0.065-0.571-0.2c-0.253-0.134-0.464-0.326-0.635-0.571
		c-0.168-0.247-0.241-0.527-0.22-0.842c0.021-0.315,0.273-0.661,0.76-1.044c0.485-0.381,1.235-0.762,2.249-1.143
		c1.015-0.382,2.45-0.752,4.309-1.111c0.973-0.225,1.71-0.044,2.217,0.538c0.508,0.584,0.761,1.212,0.761,1.884
		c0,0.764-0.178,1.695-0.538,2.795c-0.36,1.097-0.855,2.634-1.488,4.609l-3.423,10.293c-0.422,1.255-0.696,2.164-0.822,2.726
		c-0.127,0.561-0.191,1.02-0.191,1.38c0,0.222,0.054,0.436,0.159,0.638C902.805,311.221,903.027,311.322,903.365,311.322
		L903.365,311.322z M906.723,271.156c1.52,0,2.651,0.368,3.389,1.107c0.74,0.742,1.108,1.627,1.108,2.658
		c0,0.539-0.114,1.066-0.348,1.581c-0.231,0.518-0.548,0.987-0.949,1.413c-0.402,0.426-0.865,0.773-1.396,1.044
		c-0.526,0.268-1.088,0.403-1.678,0.403c-1.227,0-2.207-0.36-2.947-1.076c-0.739-0.719-1.108-1.728-1.108-3.029
		c0-1.031,0.381-1.974,1.141-2.823C904.696,271.58,905.624,271.156,906.723,271.156L906.723,271.156z M943.342,269.269h-6.526
		l-4.878,19.044c-0.592-0.72-1.32-1.258-2.186-1.617c-0.867-0.358-1.743-0.538-2.63-0.538c-1.099,0-2.122,0.191-3.074,0.573
		c-0.949,0.38-1.825,0.841-2.629,1.379c-0.801,0.538-1.53,1.122-2.187,1.749c-0.653,0.63-1.213,1.21-1.678,1.748
		c-1.268,1.526-2.365,3.096-3.295,4.712c-0.93,1.613-1.699,3.206-2.313,4.776c-0.613,1.569-1.055,3.05-1.33,4.44
		s-0.412,2.624-0.412,3.7c0,0.673,0.115,1.381,0.348,2.119c0.232,0.741,0.56,1.426,0.983,2.054c0.421,0.627,0.939,1.145,1.552,1.548
		s1.32,0.605,2.123,0.605c1.225,0,2.396-0.35,3.517-1.045c1.118-0.694,2.175-1.592,3.169-2.69c0.991-1.099,1.919-2.331,2.786-3.699
		c0.865-1.369,1.68-2.702,2.439-4.006l0.76,0.406c-0.591,1.884-1.118,3.632-1.584,5.248c-0.465,1.613-0.696,2.869-0.696,3.768
		c0,0.628,0.211,1.166,0.633,1.615c0.422,0.448,1.015,0.582,1.774,0.403c2.451-0.583,4.172-1.12,5.164-1.615
		c0.992-0.494,1.563-0.931,1.711-1.313c0.148-0.381,0.031-0.674-0.349-0.874c-0.379-0.202-0.697-0.303-0.951-0.303
		c-0.422,0-0.654-0.248-0.697-0.741c-0.041-0.492,0.043-1.211,0.254-2.151c0.127-0.54,0.359-1.448,0.697-2.725
		c0.338-1.279,0.761-2.815,1.268-4.61c0.507-1.792,1.066-3.745,1.68-5.853c0.611-2.11,1.234-4.251,1.868-6.426
		c0.635-2.176,1.257-4.296,1.868-6.36c0.612-2.063,1.175-3.923,1.68-5.584c0.508-1.66,0.94-3.052,1.299-4.17
		c0.358-1.123,0.581-1.841,0.666-2.154c0.126-0.359,0.138-0.685,0.031-0.977C944.091,269.415,943.806,269.269,943.342,269.269
		L943.342,269.269z M929.846,293.021c0,0.673-0.127,1.447-0.381,2.323c-0.253,0.871-0.568,1.758-0.949,2.654
		c-0.381,0.897-0.813,1.784-1.3,2.66c-0.485,0.874-0.939,1.649-1.361,2.321c-0.592,0.896-1.194,1.805-1.808,2.726
		c-0.611,0.918-1.203,1.759-1.772,2.522c-0.57,0.763-1.1,1.378-1.584,1.85c-0.486,0.47-0.876,0.706-1.171,0.706
		c-0.467,0-0.837-0.19-1.11-0.571c-0.275-0.381-0.411-0.977-0.411-1.783c0-0.853,0.136-1.93,0.411-3.229
		c0.273-1.301,0.644-2.692,1.11-4.172c0.463-1.481,0.99-2.961,1.584-4.441c0.59-1.48,1.202-2.814,1.835-4.002
		c0.635-1.19,1.278-2.156,1.935-2.896c0.653-0.738,1.257-1.11,1.804-1.11c1.099,0,1.901,0.427,2.407,1.279
		C929.593,290.711,929.846,291.765,929.846,293.021L929.846,293.021z M972.168,286.832c0.633,0,0.846,0.291,0.633,0.873l-4.437,14.4
		c-0.843,2.69-1.434,4.676-1.771,5.952c-0.34,1.279-0.508,2.052-0.508,2.324c0.04,0.313,0.137,0.526,0.283,0.638
		c0.148,0.113,0.33,0.166,0.541,0.166c-0.043,0,0.03,0.023,0.222,0.07c0.188,0.043,0.368,0.122,0.538,0.234s0.253,0.27,0.253,0.47
		c0,0.203-0.211,0.461-0.635,0.775c-0.421,0.314-1.097,0.705-2.026,1.178c-0.93,0.469-2.24,1.021-3.929,1.648
		c-0.803,0.313-1.445,0.189-1.932-0.369c-0.486-0.563-0.729-1.202-0.729-1.919c0-0.314,0.126-0.93,0.379-1.85
		c0.255-0.919,0.56-1.919,0.919-2.995c0.359-1.077,0.708-2.119,1.046-3.128c0.338-1.01,0.591-1.761,0.76-2.256l-0.695-0.403
		c-0.593,0.942-1.354,2.143-2.282,3.601c-0.93,1.458-2.018,2.883-3.263,4.273c-1.246,1.389-2.599,2.578-4.056,3.565
		c-1.457,0.986-2.968,1.48-4.529,1.48c-0.422,0-0.835-0.123-1.236-0.369c-0.401-0.248-0.761-0.539-1.077-0.876
		c-0.316-0.338-0.569-0.695-0.76-1.077c-0.191-0.38-0.265-0.707-0.222-0.976c0-0.717,0.074-1.457,0.222-2.221
		c0.146-0.761,0.382-1.636,0.698-2.623c0.316-0.986,0.716-2.098,1.202-3.33c0.486-1.235,1.046-2.682,1.679-4.341
		c0.846-2.24,1.48-4.071,1.902-5.483c0.421-1.412,0.633-2.344,0.633-2.792c0-0.763-0.358-1.144-1.078-1.144
		c0.085,0,0.023-0.023-0.189-0.067c-0.212-0.048-0.411-0.125-0.603-0.236c-0.19-0.111-0.315-0.257-0.379-0.436
		c-0.063-0.181,0.084-0.428,0.443-0.742c0.359-0.313,1.003-0.694,1.932-1.144c0.93-0.447,2.26-0.963,3.992-1.548
		c0.506-0.179,0.961-0.19,1.36-0.032c0.403,0.155,0.741,0.402,1.016,0.74c0.273,0.335,0.498,0.728,0.665,1.177
		c0.168,0.447,0.255,0.876,0.255,1.278c0,0.763-0.255,2.042-0.762,3.834c-0.506,1.797-1.395,4.354-2.661,7.672
		c-0.803,2.062-1.447,3.813-1.933,5.247c-0.485,1.436-0.729,2.467-0.729,3.097c0,0.358,0.117,0.65,0.35,0.873
		c0.23,0.226,0.475,0.339,0.727,0.339c0.255,0,0.763-0.396,1.521-1.179c0.76-0.785,1.584-1.728,2.471-2.826
		c0.889-1.097,1.753-2.22,2.6-3.364c0.844-1.145,1.455-2.054,1.837-2.726c0.549-0.986,1.023-1.962,1.425-2.926
		c0.401-0.965,0.835-2.165,1.299-3.601l2.027-6.458c0.083-0.315,0.401-0.471,0.951-0.471H972.168L972.168,286.832z M988.194,286.157
		l-8.616,0.739c-0.382,0.091-0.644,0.202-0.791,0.338c-0.147,0.135-0.266,0.314-0.35,0.54l-12.671,39.562
		c-0.678,2.109-1.132,3.678-1.362,4.709c-0.233,1.032-0.276,1.761-0.127,2.188c0.147,0.425,0.486,0.639,1.013,0.639
		c0.528,0,1.236,0,2.124,0c0.971,0,1.731-0.177,2.281-0.537c0.548-0.359,0.991-0.863,1.329-1.514
		c0.338-0.652,0.612-1.381,0.824-2.187c0.212-0.808,0.443-1.66,0.697-2.558l4.054-13.188c2.578-0.314,5.059-0.92,7.444-1.815
		c2.387-0.898,4.384-1.974,5.989-3.231c2.871-2.197,4.888-4.497,6.05-6.895c1.161-2.4,1.742-4.856,1.742-7.37
		c0-2.779-0.845-5.045-2.534-6.794C993.6,287.033,991.235,286.157,988.194,286.157L988.194,286.157z M977.486,312.397l7.478-22.604
		c0.338-0.091,0.645-0.134,0.917-0.134c0.276,0,0.52,0,0.729,0c0.423,0,0.866,0.121,1.331,0.368
		c0.465,0.248,0.886,0.673,1.268,1.278c0.381,0.606,0.686,1.392,0.919,2.355c0.231,0.965,0.348,2.187,0.348,3.667
		c0,2.11-0.433,4.025-1.299,5.753c-0.866,1.726-1.955,3.252-3.263,4.573c-1.311,1.326-2.716,2.39-4.213,3.198
		C980.202,311.659,978.797,312.174,977.486,312.397L977.486,312.397z M1011.19,311.322c0.761,0,1.119,0.226,1.077,0.674
		c-0.041,0.449-0.369,0.93-0.98,1.445c-0.613,0.518-1.48,1.001-2.598,1.447c-1.119,0.449-2.398,0.674-3.836,0.674
		c-0.969,0-1.624-0.214-1.962-0.638c-0.338-0.429-0.508-0.889-0.508-1.381c0-0.313,0.075-0.752,0.222-1.313
		c0.148-0.56,0.37-1.335,0.665-2.322c0.298-0.985,0.676-2.197,1.142-3.632c0.465-1.436,1.036-3.185,1.711-5.248l1.71-5.317
		c0.298-0.896,0.528-1.646,0.696-2.253c0.17-0.604,0.253-1.111,0.253-1.515c0-0.581-0.273-0.875-0.822-0.875
		c-0.127,0-0.316-0.065-0.57-0.2c-0.253-0.134-0.466-0.326-0.634-0.571c-0.169-0.247-0.243-0.527-0.222-0.842
		c0.021-0.315,0.274-0.661,0.76-1.044c0.486-0.381,1.235-0.762,2.25-1.143c1.014-0.382,2.449-0.752,4.308-1.111
		c0.973-0.225,1.712-0.044,2.219,0.538c0.506,0.584,0.76,1.212,0.76,1.884c0,0.764-0.179,1.695-0.538,2.795
		c-0.358,1.097-0.856,2.634-1.489,4.609l-3.421,10.293c-0.423,1.255-0.697,2.164-0.824,2.726c-0.127,0.561-0.189,1.02-0.189,1.38
		c0,0.222,0.053,0.436,0.158,0.638C1010.631,311.221,1010.852,311.322,1011.19,311.322L1011.19,311.322z M1014.55,271.156
		c1.521,0,2.651,0.368,3.391,1.107c0.737,0.742,1.107,1.627,1.107,2.658c0,0.539-0.115,1.066-0.349,1.581
		c-0.231,0.518-0.548,0.987-0.95,1.413c-0.4,0.426-0.864,0.773-1.395,1.044c-0.527,0.268-1.087,0.403-1.679,0.403
		c-1.226,0-2.206-0.36-2.945-1.076c-0.74-0.719-1.108-1.728-1.108-3.029c0-1.031,0.379-1.974,1.141-2.823
		C1012.521,271.58,1013.45,271.156,1014.55,271.156z"/>
	<path fill-rule="evenodd" clip-rule="evenodd" fill="#5E5F5F" d="M1103.564,333.659c-3.42,0-6.503-0.593-9.249-1.78
		c-2.746-1.191-5.175-2.626-7.286-4.309c-2.112-1.681-3.928-3.441-5.448-5.282c-1.521-1.836-2.746-3.407-3.675-4.709
		c-1.775-2.512-3.464-5.293-5.069-8.344c-1.605-3.05-3.083-6.234-4.436-9.554c-1.351-3.32-2.556-6.705-3.611-10.159
		c-1.057-3.454-1.966-6.841-2.725-10.16c-0.084-0.314-0.2-0.46-0.349-0.438c-0.148,0.023-0.265,0.302-0.348,0.841
		c-0.718,4.307-1.638,8.389-2.757,12.246s-2.418,7.2-3.896,10.026c-1.099,2.106-2.322,4.08-3.676,5.921
		c-1.351,1.838-2.838,3.43-4.466,4.776c-1.625,1.346-3.39,2.41-5.291,3.194c-1.9,0.787-3.928,1.178-6.081,1.178
		c-1.269,0-2.473-0.2-3.612-0.605c-1.141-0.402-2.133-0.998-2.978-1.782c-0.845-0.785-1.521-1.749-2.029-2.894
		c-0.505-1.144-0.759-2.456-0.759-3.936c0-0.987,0.125-1.85,0.38-2.59c0.253-0.74,0.592-1.37,1.013-1.886
		c0.425-0.515,0.89-0.896,1.396-1.144c0.507-0.246,0.991-0.367,1.456-0.367c0.973,0,1.775,0.255,2.408,0.77
		c0.634,0.52,0.95,1.427,0.95,2.728c0,0.494-0.104,0.931-0.316,1.312c-0.213,0.382-0.454,0.751-0.729,1.111
		c-0.274,0.356-0.548,0.706-0.824,1.042c-0.272,0.337-0.473,0.706-0.601,1.109c-0.21,0.628-0.021,1.233,0.571,1.816
		c0.59,0.585,1.837,0.876,3.736,0.876c1.438,0,2.863-0.271,4.278-0.808c1.416-0.539,2.757-1.257,4.022-2.152
		c1.268-0.897,2.439-1.907,3.518-3.029c1.075-1.12,2.036-2.286,2.883-3.497c1.141-1.662,2.281-3.701,3.42-6.124
		c1.141-2.422,2.165-4.899,3.073-7.436c0.909-2.534,1.648-4.979,2.217-7.333c0.572-2.355,0.855-4.296,0.855-5.819
		c0-0.764-0.179-1.29-0.538-1.581c-0.357-0.293-0.896-0.438-1.615-0.438c-1.647,0-3.369,0.032-5.164,0.102
		c-1.794,0.066-3.664,0.415-5.607,1.043c-1.351,0.402-2.533,1.008-3.548,1.816c-1.014,0.808-1.521,1.615-1.521,2.422
		c0,0.404,0.127,0.896,0.38,1.479c0.255,0.583,0.718,0.966,1.395,1.144c1.267,0.226,2.154,0.618,2.659,1.179
		c0.508,0.562,0.763,1.245,0.763,2.051c0,0.898-0.296,1.661-0.888,2.289c-0.591,0.628-1.459,0.943-2.598,0.943
		c-1.225,0-2.271-0.617-3.136-1.853c-0.865-1.233-1.3-2.725-1.3-4.475c0-2.019,0.37-3.88,1.108-5.584
		c0.74-1.703,1.849-3.142,3.327-4.308c1.139-0.851,2.418-1.479,3.834-1.883c1.415-0.404,3.041-0.685,4.879-0.841
		c1.836-0.156,3.949-0.224,6.335-0.201c2.387,0.021,5.121,0.034,8.204,0.034c0.676,0,1.152,0.121,1.426,0.369
		c0.274,0.247,0.476,0.639,0.603,1.178c0.338,1.704,0.781,3.578,1.331,5.618c0.548,2.04,1.162,4.137,1.837,6.291
		c0.676,2.153,1.374,4.296,2.091,6.425c0.717,2.131,1.446,4.14,2.188,6.021c0.737,1.885,1.445,3.59,2.121,5.115
		c0.675,1.524,1.288,2.758,1.837,3.701c0.254,0.446,0.435,0.458,0.54,0.033c0.104-0.427,0.22-0.977,0.347-1.649
		c0.634-3.095,1.394-6.2,2.282-9.318c0.887-3.117,1.911-6.089,3.071-8.915c1.164-2.826,2.483-5.383,3.961-7.671
		c1.479-2.288,3.105-4.126,4.879-5.518c1.69-1.3,3.284-2.175,4.784-2.624c1.498-0.447,2.903-0.673,4.213-0.673
		c2.069,0,3.602,0.493,4.594,1.481c0.991,0.985,1.489,2.107,1.489,3.363c0,1.031-0.35,1.884-1.046,2.558
		c-0.697,0.673-1.447,1.008-2.248,1.008c-0.72,0-1.311-0.201-1.775-0.605c-0.465-0.402-0.866-0.851-1.204-1.346
		c-0.211-0.313-0.55-0.593-1.014-0.841c-0.465-0.246-0.93-0.37-1.395-0.37c-0.59,0-1.204,0.091-1.837,0.271
		c-0.634,0.179-1.457,0.604-2.471,1.277c-1.098,0.762-2.262,1.805-3.484,3.13c-1.226,1.322-2.45,3.128-3.676,5.417
		c-1.226,2.285-2.428,5.124-3.612,8.512c-1.181,3.385-2.279,7.521-3.294,12.412c-0.253,1.212-0.369,2.22-0.348,3.028
		c0.021,0.808,0.095,1.492,0.221,2.053c0.127,0.563,0.285,1.021,0.477,1.379c0.188,0.358,0.37,0.673,0.538,0.941
		c0.548,0.987,1.256,2.118,2.123,3.396c0.864,1.28,1.858,2.592,2.977,3.938c1.12,1.345,2.345,2.681,3.676,4.003
		c1.33,1.324,2.746,2.5,4.243,3.533c1.5,1.03,3.064,1.861,4.691,2.489c1.624,0.629,3.282,0.94,4.973,0.94
		c1.478,0,2.744-0.334,3.802-1.008c1.056-0.673,1.688-1.57,1.9-2.692c0.337-1.658,0.728-2.848,1.173-3.567
		c0.442-0.716,1.002-1.074,1.677-1.074c0.846,0,1.417,0.314,1.712,0.943c0.297,0.628,0.444,1.188,0.444,1.682
		c0,0.449-0.17,1.098-0.508,1.951c-0.338,0.853-0.803,1.592-1.394,2.22c-0.255,0.312-0.676,0.752-1.268,1.312
		c-0.59,0.563-1.362,1.122-2.312,1.681c-0.951,0.562-2.102,1.043-3.452,1.447C1107.029,333.46,1105.424,333.659,1103.564,333.659
		L1103.564,333.659z M1115.219,308.159l-1.013-0.739c-0.17-0.137-0.34-0.068-0.506,0.201c-0.72,0.854-1.649,1.65-2.79,2.388
		c-1.139,0.741-2.491,1.112-4.054,1.112c-1.099,0-1.943-0.438-2.534-1.312c-0.592-0.876-0.888-1.896-0.888-3.064
		c0-0.94,0.053-1.804,0.159-2.588c0.104-0.786,0.221-1.335,0.347-1.649c1.228-0.088,2.642-0.349,4.247-0.773
		c1.604-0.428,3.296-1.156,5.067-2.188c1.86-1.121,3.284-2.387,4.278-3.801c0.991-1.413,1.489-3.063,1.489-4.945
		c0-1.303-0.382-2.4-1.141-3.297c-0.762-0.896-2.028-1.347-3.803-1.347c-1.901,0-3.75,0.427-5.544,1.28
		c-1.795,0.848-3.476,1.995-5.037,3.431c-1.395,1.258-2.587,2.624-3.581,4.104c-0.991,1.481-1.783,2.984-2.375,4.509
		c-0.591,1.525-1.023,3.017-1.299,4.476c-0.273,1.457-0.411,2.813-0.411,4.068c0,2.424,0.696,4.285,2.092,5.586
		c1.392,1.301,3.167,1.951,5.32,1.951c1.564,0,3.021-0.235,4.372-0.708c1.353-0.472,2.546-1.052,3.58-1.75
		c1.033-0.694,1.911-1.422,2.63-2.185c0.718-0.763,1.225-1.459,1.52-2.087C1115.472,308.565,1115.432,308.34,1115.219,308.159
		L1115.219,308.159z M1104.449,300.019c0.55,0.043,1.416-0.158,2.599-0.604c1.183-0.449,2.239-1.146,3.169-2.087
		c0.505-0.492,0.971-1.256,1.393-2.289c0.423-1.03,0.633-2.106,0.633-3.229c0-0.538-0.105-1.055-0.315-1.547
		c-0.213-0.493-0.678-0.74-1.396-0.74c-0.591,0-1.203,0.336-1.837,1.009s-1.226,1.535-1.773,2.591
		c-0.55,1.053-1.036,2.197-1.457,3.432C1105.042,297.786,1104.703,298.941,1104.449,300.019L1104.449,300.019z M1129.284,334.871
		c2.576,0,4.677-0.214,6.304-0.639c1.627-0.427,3.115-1.021,4.467-1.783c1.014-0.537,1.848-1.132,2.503-1.782
		c0.654-0.651,1.16-1.313,1.521-1.985c0.359-0.674,0.603-1.335,0.729-1.985c0.127-0.649,0.19-1.268,0.19-1.849
		c0-1.032-0.338-2.143-1.015-3.331c-0.676-1.191-1.984-2.369-3.928-3.534c-2.323-1.389-4.268-2.511-5.829-3.364
		c-1.563-0.854-2.661-1.458-3.294-1.816c-0.297-0.179-0.635-0.458-1.014-0.842c-0.381-0.379-0.57-0.751-0.57-1.108
		c0-0.494,0.189-1.011,0.57-1.549c0.379-0.537,0.908-0.963,1.584-1.278c0.084-0.046,0.4-0.102,0.948-0.167
		c0.55-0.068,1.184-0.146,1.901-0.236c1.817-0.27,3.411-0.908,4.785-1.916c1.372-1.01,2.513-2.154,3.421-3.434
		c0.907-1.278,1.583-2.556,2.026-3.834c0.443-1.277,0.666-2.321,0.666-3.13c0-0.762-0.021-1.446-0.062-2.051
		c-0.045-0.605-0.148-1.111-0.318-1.516c0.38-0.402,0.843-0.604,1.395-0.604c0.21,0,0.399,0.078,0.569,0.237
		c0.168,0.155,0.338,0.324,0.506,0.503c0.254,0.269,0.562,0.505,0.92,0.708c0.358,0.2,0.729,0.3,1.109,0.3
		c0.759,0,1.384-0.258,1.868-0.771c0.486-0.518,0.749-1.223,0.793-2.12c-0.044-0.718-0.297-1.414-0.762-2.086
		c-0.464-0.673-1.204-1.011-2.218-1.011c-0.971,0-1.922,0.271-2.852,0.809c-0.929,0.539-1.731,1.077-2.406,1.615
		c-0.168-0.271-0.423-0.583-0.761-0.94c-0.338-0.36-0.781-0.708-1.329-1.045c-0.551-0.338-1.228-0.616-2.028-0.842
		c-0.803-0.222-1.73-0.336-2.788-0.336c-2.196,0-4.129,0.439-5.797,1.313c-1.669,0.873-3.073,1.951-4.214,3.229
		c-1.141,1.278-1.997,2.646-2.566,4.106c-0.571,1.456-0.854,2.79-0.854,4.001c0,1.212,0.105,2.256,0.316,3.131
		c0.21,0.872,0.528,1.625,0.949,2.252c0.424,0.627,0.972,1.199,1.648,1.717c0.675,0.517,1.5,1.02,2.471,1.514v0.135
		c-1.732,0.762-3.114,1.604-4.15,2.522c-1.034,0.919-1.551,1.761-1.551,2.524c0,0.761,0.167,1.457,0.505,2.084
		c0.338,0.629,0.993,1.324,1.965,2.088c-1.014,0.445-2.291,1.03-3.832,1.749c-1.544,0.719-2.969,1.637-4.278,2.757
		c-1.099,0.944-1.785,1.762-2.059,2.456c-0.274,0.697-0.411,1.604-0.411,2.725c0,1.122,0.359,2.188,1.076,3.197
		c0.718,1.01,1.71,1.906,2.978,2.69c1.268,0.785,2.778,1.401,4.53,1.85C1125.365,334.648,1127.254,334.871,1129.284,334.871
		L1129.284,334.871z M1130.488,302.24c0-0.941,0-1.783,0-2.523c0-0.741,0.073-1.479,0.222-2.222c0.146-0.738,0.399-1.57,0.759-2.489
		c0.36-0.921,0.878-2.028,1.553-3.331c0.591-1.166,1.129-1.984,1.615-2.455c0.486-0.472,1.089-0.706,1.807-0.706
		c0.888,0,1.404,0.358,1.553,1.078c0.147,0.716,0.221,1.771,0.221,3.161c0,1.303-0.147,2.69-0.442,4.172
		c-0.297,1.479-0.708,2.849-1.235,4.104c-0.53,1.255-1.151,2.299-1.871,3.129c-0.717,0.828-1.477,1.244-2.279,1.244
		c-0.677,0-1.162-0.235-1.457-0.706C1130.635,304.223,1130.488,303.405,1130.488,302.24L1130.488,302.24z M1131.057,332.381
		c-2.534,0-4.636-0.561-6.304-1.68c-1.67-1.122-2.503-2.894-2.503-5.315c0-1.795,0.464-3.229,1.393-4.31
		c0.93-1.075,2.049-2.041,3.359-2.892c0.295,0.226,0.729,0.505,1.299,0.843c0.571,0.334,1.161,0.683,1.773,1.042
		c0.613,0.357,1.184,0.695,1.71,1.007c0.528,0.316,0.877,0.52,1.047,0.606c0.886,0.541,1.637,1.022,2.248,1.447
		c0.612,0.428,1.089,0.841,1.426,1.245c0.339,0.404,0.582,0.853,0.73,1.347c0.146,0.494,0.222,1.099,0.222,1.815
		c0,0.852-0.213,1.582-0.635,2.187c-0.423,0.605-0.949,1.111-1.584,1.517c-0.633,0.402-1.32,0.693-2.06,0.873
		S1131.734,332.381,1131.057,332.381L1131.057,332.381z M1171.287,308.159c0.212,0.181,0.254,0.405,0.127,0.673
		c-0.295,0.628-0.803,1.324-1.521,2.087s-1.596,1.49-2.63,2.185c-1.035,0.698-2.227,1.278-3.58,1.75
		c-1.35,0.473-2.809,0.708-4.37,0.708c-2.156,0-3.929-0.65-5.323-1.951c-1.394-1.301-2.091-3.162-2.091-5.586
		c0-1.256,0.138-2.611,0.412-4.068c0.275-1.459,0.708-2.95,1.298-4.476c0.592-1.524,1.384-3.027,2.377-4.509
		c0.992-1.479,2.186-2.846,3.578-4.104c1.564-1.436,3.243-2.583,5.038-3.431c1.795-0.854,3.643-1.28,5.544-1.28
		c1.775,0,3.043,0.45,3.802,1.347c0.76,0.896,1.142,1.994,1.142,3.297c0,1.883-0.498,3.532-1.489,4.945
		c-0.993,1.414-2.418,2.68-4.276,3.801c-1.774,1.031-3.465,1.76-5.07,2.188c-1.604,0.425-3.019,0.686-4.246,0.773
		c-0.125,0.314-0.241,0.863-0.347,1.649c-0.106,0.784-0.158,1.647-0.158,2.588c0,1.168,0.296,2.188,0.886,3.064
		c0.592,0.873,1.438,1.312,2.535,1.312c1.563,0,2.916-0.371,4.055-1.112c1.142-0.737,2.07-1.533,2.788-2.388
		c0.17-0.27,0.338-0.338,0.507-0.201L1171.287,308.159L1171.287,308.159z M1160.515,300.019c0.55,0.043,1.416-0.158,2.598-0.604
		c1.183-0.449,2.24-1.146,3.17-2.087c0.505-0.492,0.969-1.256,1.394-2.289c0.421-1.03,0.633-2.106,0.633-3.229
		c0-0.538-0.106-1.055-0.316-1.547c-0.212-0.493-0.676-0.74-1.394-0.74c-0.593,0-1.206,0.336-1.839,1.009
		c-0.634,0.673-1.224,1.535-1.775,2.591c-0.546,1.053-1.032,2.197-1.455,3.432C1161.107,297.786,1160.77,298.941,1160.515,300.019
		L1160.515,300.019z M1179.077,314.888c-0.548,0-0.739-0.202-0.569-0.604l3.042-10.9c0.252-0.941,0.56-2.017,0.916-3.229
		c0.361-1.213,0.698-2.39,1.016-3.532c0.316-1.144,0.581-2.176,0.791-3.097c0.212-0.919,0.317-1.533,0.317-1.851
		c0-0.358-0.096-0.66-0.285-0.906c-0.19-0.247-0.453-0.371-0.793-0.371c-0.082,0-0.295-0.066-0.633-0.199
		c-0.338-0.135-0.475-0.361-0.413-0.675c0.065-0.314,0.478-0.752,1.237-1.313c0.76-0.56,2.219-1.243,4.37-2.052
		c0.595-0.225,1.1-0.27,1.523-0.134c0.422,0.134,0.76,0.358,1.013,0.672c0.253,0.314,0.443,0.674,0.571,1.079
		c0.126,0.402,0.188,0.762,0.188,1.074c0,0.629-0.264,1.715-0.791,3.265c-0.529,1.547-1.173,3.418-1.933,5.617l0.696,0.402
		c0.38-0.939,0.906-2.085,1.584-3.431c0.676-1.346,1.436-2.655,2.281-3.935c0.844-1.28,1.794-2.367,2.852-3.264
		c1.056-0.896,2.153-1.347,3.294-1.347c0.93,0,1.764,0.336,2.502,1.01c0.741,0.674,1.109,1.548,1.109,2.625
		c0,0.582-0.096,1.143-0.285,1.682c-0.19,0.538-0.433,1.008-0.728,1.411c-0.297,0.406-0.602,0.72-0.918,0.944
		c-0.318,0.226-0.625,0.335-0.92,0.335c-0.889,0-1.585-0.178-2.091-0.537c-0.253-0.179-0.508-0.36-0.761-0.538
		c-0.254-0.182-0.59-0.271-1.015-0.271c-0.507,0-1.076,0.292-1.71,0.876c-0.634,0.582-1.268,1.312-1.902,2.188
		c-0.633,0.875-1.232,1.827-1.804,2.859s-1.024,1.973-1.362,2.825c-0.338,0.808-0.676,1.705-1.013,2.691
		c-0.338,0.987-0.699,2.109-1.077,3.364l-2.027,6.797c-0.128,0.313-0.402,0.47-0.824,0.47H1179.077L1179.077,314.888z
		 M1212.719,311.322c0.759,0,1.119,0.226,1.076,0.674c-0.044,0.449-0.37,0.93-0.981,1.445c-0.613,0.518-1.479,1.001-2.6,1.447
		c-1.119,0.449-2.396,0.674-3.832,0.674c-0.973,0-1.627-0.214-1.965-0.638c-0.337-0.429-0.505-0.889-0.505-1.381
		c0-0.313,0.073-0.752,0.222-1.313c0.146-0.56,0.368-1.335,0.663-2.322c0.296-0.985,0.677-2.197,1.141-3.632
		c0.466-1.436,1.036-3.185,1.71-5.248l1.712-5.317c0.295-0.896,0.528-1.646,0.698-2.253c0.17-0.604,0.253-1.111,0.253-1.515
		c0-0.581-0.274-0.875-0.824-0.875c-0.127,0-0.318-0.065-0.571-0.2c-0.252-0.134-0.463-0.326-0.633-0.571
		c-0.168-0.247-0.243-0.527-0.222-0.842c0.021-0.315,0.274-0.661,0.761-1.044c0.485-0.381,1.236-0.762,2.249-1.143
		c1.014-0.382,2.451-0.752,4.308-1.111c0.973-0.225,1.711-0.044,2.219,0.538c0.506,0.584,0.76,1.212,0.76,1.884
		c0,0.764-0.179,1.695-0.538,2.795c-0.36,1.097-0.856,2.634-1.489,4.609l-3.421,10.293c-0.423,1.255-0.697,2.164-0.824,2.726
		c-0.126,0.561-0.191,1.02-0.191,1.38c0,0.222,0.055,0.436,0.158,0.638C1212.158,311.221,1212.382,311.322,1212.719,311.322
		L1212.719,311.322z M1216.075,271.156c1.522,0,2.651,0.368,3.393,1.107c0.737,0.742,1.107,1.627,1.107,2.658
		c0,0.539-0.116,1.066-0.348,1.581c-0.233,0.518-0.55,0.987-0.951,1.413s-0.866,0.773-1.394,1.044
		c-0.528,0.268-1.088,0.403-1.678,0.403c-1.227,0-2.208-0.36-2.947-1.076c-0.741-0.719-1.111-1.728-1.111-3.029
		c0-1.031,0.382-1.974,1.143-2.823C1214.049,271.58,1214.978,271.156,1216.075,271.156z"/>
</g>
<path fill-rule="evenodd" clip-rule="evenodd" fill="none" stroke="#231F20" stroke-width="0.5" stroke-miterlimit="2.6131" d="
	M87.428,292.66c-9.827-30.971,23.863-64.397,38.369-77.179c14.507-12.78,27.274-27.036,27.274-27.036l17.28,142.313"/>
<linearGradient id="SVGID_2_" gradientUnits="userSpaceOnUse" x1="231.9705" y1="424.9709" x2="203.9269" y2="54.1158">
	<stop  offset="0" style="stop-color:#8D181A"/>
	<stop  offset="1" style="stop-color:#EC1C24"/>
</linearGradient>
<path fill-rule="evenodd" clip-rule="evenodd" fill="url(#SVGID_2_)" d="M202.162,333.667
	c128.373-90.883-69.032-197.276-28.478-289.12c4.869,57.27,53.933,120.654,74.981,174.16
	C267.434,266.417,251.547,307.081,202.162,333.667z"/>
<linearGradient id="SVGID_3_" gradientUnits="userSpaceOnUse" x1="153.9866" y1="324.7434" x2="150.6116" y2="93.9793">
	<stop  offset="0" style="stop-color:#213B81"/>
	<stop  offset="1" style="stop-color:#1FC3F3"/>
</linearGradient>
<path fill-rule="evenodd" clip-rule="evenodd" fill="url(#SVGID_3_)" d="M152.965,75.893
	c15.765,62.571,86.932,128.283,86.983,187.118c0.044,50.495-45.128,82.575-89.712,81.047c-44.312-1.519-88.052-36.325-83.749-90.336
	C71.003,197.051,135.99,143.271,152.965,75.893z"/>
<linearGradient id="SVGID_4_" gradientUnits="userSpaceOnUse" x1="151.3298" y1="147.7375" x2="183.3266" y2="436.3047">
	<stop  offset="0" style="stop-color:#213B81"/>
	<stop  offset="1" style="stop-color:#1FC3F3"/>
</linearGradient>
<path fill-rule="evenodd" clip-rule="evenodd" fill="url(#SVGID_4_)" d="M170.351,330.759c0,0,37.802-7.622,42.014-59.73
	c3.26-40.328-56.491-101.646-59.4-195.136c15.765,62.571,86.932,128.283,86.983,187.118c0.044,50.495-45.128,82.575-89.712,81.047
	c-35.403-1.212-60.465-24.152-59.619-62.175c0.878-39.366,41.93-58.75,62.454-93.438L170.351,330.759z"/>
<path fill-rule="evenodd" clip-rule="evenodd" fill="#FFFFFF" d="M153.071,188.446c-11.864,23.867-25.433,35.411-37.166,53.716
	c-24.164,37.697-12.04,89.859,36.076,91.353c0.372,0.011,0.723,0.008,1.09,0.014c0.366-0.006,0.718-0.003,1.089-0.014
	c48.115-1.493,60.24-53.655,36.076-91.353C178.503,223.857,164.934,212.313,153.071,188.446z"/>
<radialGradient id="SVGID_5_" cx="93.8103" cy="269.7219" r="57.8844" gradientTransform="matrix(0.0558 -1.6434 0.918 0.0344 -188.5643 482.4404)" gradientUnits="userSpaceOnUse">
	<stop  offset="0" style="stop-color:#93C83D"/>
	<stop  offset="0.2876" style="stop-color:#8FC53D"/>
	<stop  offset="0.5441" style="stop-color:#85BB3E"/>
	<stop  offset="0.7879" style="stop-color:#72AA3F"/>
	<stop  offset="1" style="stop-color:#5C9641"/>
</radialGradient>
<path fill-rule="evenodd" clip-rule="evenodd" fill="url(#SVGID_5_)" d="M68.574,300.418c-10.117,5.374-15.991,11.776-15.991,18.649
	c0,11.816,17.363,22.243,43.819,28.448c-37.509-6.764-63.004-20.03-63.004-35.295c0-10.082,11.128-19.293,29.494-26.336l0.074,0.155
	C64.396,290.995,66.267,295.801,68.574,300.418z"/>
<radialGradient id="SVGID_6_" cx="206.4612" cy="270.2307" r="53.038" gradientTransform="matrix(0.0677 -1.6429 1.0015 0.0456 -44.0136 665.2784)" gradientUnits="userSpaceOnUse">
	<stop  offset="0" style="stop-color:#93C83D"/>
	<stop  offset="0.2876" style="stop-color:#8FC53D"/>
	<stop  offset="0.5441" style="stop-color:#85BB3E"/>
	<stop  offset="0.7879" style="stop-color:#72AA3F"/>
	<stop  offset="1" style="stop-color:#5C9641"/>
</radialGradient>
<path fill-rule="evenodd" clip-rule="evenodd" fill="url(#SVGID_6_)" d="M254.697,291.056c11.438,6.142,18.047,13.396,18.047,21.165
	c0,15.265-25.496,28.531-63.005,35.295c26.456-6.205,43.819-16.632,43.819-28.448c0-5.053-3.173-9.85-8.87-14.174
	C248.519,300.684,251.879,296.069,254.697,291.056z"/>
<radialGradient id="SVGID_7_" cx="148.6448" cy="283.4075" r="160.0646" gradientTransform="matrix(1.5648 -0.0431 0.0203 0.8151 -88.2559 135.4633)" gradientUnits="userSpaceOnUse">
	<stop  offset="0" style="stop-color:#93C83D"/>
	<stop  offset="0.2876" style="stop-color:#8FC53D"/>
	<stop  offset="0.5441" style="stop-color:#85BB3E"/>
	<stop  offset="0.7879" style="stop-color:#72AA3F"/>
	<stop  offset="1" style="stop-color:#5C9641"/>
</radialGradient>
<path fill-rule="evenodd" clip-rule="evenodd" fill="url(#SVGID_7_)" d="M271.528,289.129c18.682,8.841,29.76,19.84,29.76,31.762
	c0,29.187-66.36,52.846-148.218,52.846c-81.857,0-148.217-23.659-148.217-52.846c0-11.922,11.08-22.921,29.761-31.762
	c-9.304,6.578-14.553,14.032-14.553,21.933c0,26.606,59.55,48.174,133.009,48.174c73.459,0,133.01-21.567,133.01-48.174
	C286.08,303.161,280.831,295.707,271.528,289.129z"/>
</svg>
